<mxfile host="app.diagrams.net" modified="2023-07-11T14:51:25.938Z" agent="Mozilla/5.0 (Windows NT 6.1; Win64; x64; rv:106.0) Gecko/20100101 Firefox/106.0" version="21.6.1" etag="PeSC9dC3B2E6TBaknXAr" type="github">
  <diagram name="Страница 1" id="53IX7dnDDl2qlAnk0tUx">
    <mxGraphModel>
      <root>
        <mxCell id="0" />
        <mxCell id="1" parent="0" />
      </root>
    </mxGraphModel>
  </diagram>
</mxfile>
